<svg width="25" height="24" viewBox="0 0 25 24" fill="none" xmlns="http://www.w3.org/2000/svg">
<rect x="0.743225" width="24" height="24" rx="12" fill="#58594D"/>
<path d="M10.7547 6.30857C10.7547 5.85412 11.1231 5.48572 11.5775 5.48572H13.2232C13.6777 5.48572 14.0461 5.85412 14.0461 6.30857V17.0057C14.0461 17.4602 13.6777 17.8286 13.2232 17.8286H11.5775C11.1231 17.8286 10.7547 17.4602 10.7547 17.0057V6.30857Z" fill="#E0E0D1"/>
<path d="M17.7489 10.0114C18.2034 10.0114 18.5718 10.3798 18.5718 10.8343V12.48C18.5718 12.9345 18.2034 13.3029 17.7489 13.3029L7.0518 13.3029C6.59735 13.3029 6.22894 12.9345 6.22894 12.48L6.22894 10.8343C6.22894 10.3798 6.59735 10.0114 7.0518 10.0114L17.7489 10.0114Z" fill="#E0E0D1"/>
</svg>
