<svg width="25" height="24" viewBox="0 0 25 24" fill="none" xmlns="http://www.w3.org/2000/svg">
<g clip-path="url(#clip0_4_70)">
<path d="M5.9918 0C3.15251 0 0.848938 2.01562 0.848938 4.5V19.5C0.848938 21.9844 3.15251 24 5.9918 24H21.4204H23.1347C24.0829 24 24.8489 23.3297 24.8489 22.5C24.8489 21.6703 24.0829 21 23.1347 21V18C24.0829 18 24.8489 17.3297 24.8489 16.5V1.5C24.8489 0.670312 24.0829 0 23.1347 0H21.4204H5.9918ZM5.9918 18H19.7061V21H5.9918C5.04358 21 4.27751 20.3297 4.27751 19.5C4.27751 18.6703 5.04358 18 5.9918 18ZM7.70608 6.75C7.70608 6.3375 8.09179 6 8.56322 6H18.8489C19.3204 6 19.7061 6.3375 19.7061 6.75C19.7061 7.1625 19.3204 7.5 18.8489 7.5H8.56322C8.09179 7.5 7.70608 7.1625 7.70608 6.75ZM8.56322 9H18.8489C19.3204 9 19.7061 9.3375 19.7061 9.75C19.7061 10.1625 19.3204 10.5 18.8489 10.5H8.56322C8.09179 10.5 7.70608 10.1625 7.70608 9.75C7.70608 9.3375 8.09179 9 8.56322 9Z" fill="#58594D"/>
</g>
<defs>
<clipPath id="clip0_4_70">
<rect width="24" height="24" fill="white" transform="translate(0.848938)"/>
</clipPath>
</defs>
</svg>
