<svg width="39" height="13" viewBox="0 0 39 13" fill="none" xmlns="http://www.w3.org/2000/svg">
<path fill-rule="evenodd" clip-rule="evenodd" d="M22.8648 3.41786C23.6857 3.49326 24.5046 3.59631 25.3202 3.727C23.6249 5.71828 22.5183 8.16778 22.1607 10.7979C22.0491 11.6188 22.6241 12.3747 23.445 12.4863C24.2659 12.5979 25.0218 12.023 25.1334 11.2021C25.4907 8.5739 26.8042 6.17635 28.8125 4.46219C31.3846 5.13563 33.9008 6.09287 36.3139 7.33391C37.0506 7.71279 37.955 7.42271 38.3339 6.686C38.7128 5.94929 38.4227 5.04492 37.686 4.66604C26.2724 -1.20378 12.7275 -1.20378 1.31393 4.66604C0.57722 5.04492 0.287141 5.94929 0.66602 6.686C1.0449 7.42271 1.94926 7.71279 2.68597 7.33391C3.39968 6.96686 4.12239 6.62464 4.8529 6.30724C4.25773 7.19995 3.72974 8.1386 3.27446 9.1157C2.92458 9.86661 3.24968 10.759 4.00059 11.1089C4.7515 11.4588 5.64388 11.1337 5.99376 10.3827C7.01902 8.18238 8.47372 6.20913 10.2724 4.57893C10.3353 4.52187 10.3923 4.46069 10.4433 4.39617C11.0877 4.2324 11.7355 4.08639 12.386 3.95814C11.2171 5.69274 10.4477 7.68716 10.1607 9.79792C10.0491 10.6188 10.6241 11.3747 11.445 11.4863C12.2659 11.5979 13.0218 11.023 13.1334 10.2021C13.4984 7.51743 14.8611 5.07342 16.943 3.35263C17.5886 3.30765 18.2352 3.27973 18.882 3.26886C17.434 5.15532 16.4865 7.40165 16.1607 9.79792C16.0491 10.6188 16.6241 11.3747 17.445 11.4863C18.2659 11.5979 19.0218 11.023 19.1334 10.2021C19.4938 7.55117 20.827 5.1349 22.8648 3.41786Z" fill="#132015"/>
</svg>
