<svg width="38" height="28" viewBox="0 0 38 28" fill="none" xmlns="http://www.w3.org/2000/svg">
<path fill-rule="evenodd" clip-rule="evenodd" d="M3.38006 14.0877C9.33739 0.100959 29.1627 0.100959 35.12 14.0877C35.4446 14.8499 36.3256 15.2046 37.0878 14.88C37.85 14.5554 38.2047 13.6743 37.8801 12.9122C30.8866 -3.50718 7.6134 -3.50718 0.619984 12.9122C0.295355 13.6743 0.650054 14.5554 1.41223 14.88C2.1744 15.2046 3.05543 14.8499 3.38006 14.0877ZM35.4391 17.9389C26.6361 26.742 12.3635 26.742 3.56044 17.9389C2.97465 17.3531 2.0249 17.3531 1.43911 17.9389C0.85333 18.5247 0.85333 19.4744 1.43911 20.0602C11.4137 30.0349 27.5858 30.0349 37.5604 20.0602C38.1462 19.4745 38.1462 18.5247 37.5604 17.9389C36.9747 17.3531 36.0249 17.3531 35.4391 17.9389ZM19.4998 19.9996C22.8135 19.9996 25.4998 17.3133 25.4998 13.9996C25.4998 10.6859 22.8135 7.99957 19.4998 7.99957C16.1861 7.99957 13.4998 10.6859 13.4998 13.9996C13.4998 17.3133 16.1861 19.9996 19.4998 19.9996Z" fill="#132015"/>
</svg>
